<svg width="250" height="250" viewBox="0 0 250 250">
<path d="M81.0207 116.095L94.9285 108.102V91.7243L44.9726 63.0067L30.8949 87.2855L81.0207 116.095Z"/>
<path d="M154.732 91.5282V107.522L168.976 115.711L218.935 86.9932L204.858 62.7183L154.732 91.5282Z"/>
<path d="M111.088 167.565V225H139.244V167.373L125.336 159.376L111.088 167.565Z"/>
<path d="M138.908 25H110.752V117.199L31.0648 163.007L45.1425 187.282L125.336 141.186L205.024 186.993L219.101 162.714L138.908 116.619V25Z"/>
<path d="M56.0523 111.745L47.6806 103.41L26 125L34.3678 133.331L56.0523 111.745Z"/>
<path d="M47.6806 146.59L56.0523 138.255L34.3678 116.665L26 125L47.6806 146.59Z"/>
<path d="M193.948 111.745L202.316 103.41L224 125L215.628 133.331L193.948 111.745Z"/>
<path d="M202.316 146.59L193.948 138.255L215.628 116.665L224 125L202.316 146.59Z"/>
<path d="M78.3163 64.4223H66.4792V33.8892H78.3163V64.4223Z"/>
<path d="M97.142 45.6747H66.4792V33.8892H97.142V45.6747Z"/>
<path d="M171.68 64.4223H183.517V33.8892H171.68V64.4223Z"/>
<path d="M152.854 45.6747H183.517V33.8892H152.854V45.6747Z"/>
<path d="M78.3163 185.578H66.4792V216.111H78.3163V185.578Z"/>
<path d="M97.142 204.325H66.4792V216.111H97.142V204.325Z"/>
<path d="M171.68 185.578H183.517V216.111H171.68V185.578Z"/>
<path d="M152.854 204.325H183.517V216.111H152.854V204.325Z"/>
</svg>
