<svg width="250" height="250" viewBox="0 0 250 250">
<path d="M145.852 64.7031L129.126 52.8882V116.39H121.874V52.8882L105.152 64.7031H85.6807L90.7236 144.068L125.5 170.084L160.276 144.068L165.319 64.7031H145.852Z"/>
<path d="M169.924 77.1261L165.34 146.47L125.5 175.93L85.6644 146.47L81.0803 77.1261L66.4143 83.4829L71.3549 158.231L125.5 198.273L179.645 158.231L184.586 83.4829L169.924 77.1261Z"/>
<path d="M187.896 162.515L125.5 209.457L63.1082 162.515L57.7252 77.5561L82.0223 67.6355V57.649H102.96L125.5 42.9908L148.04 57.649H168.978V67.6355L193.275 77.5561L187.896 162.515ZM177.929 59.5084V46.8335H151.596L125.5 29.8627L99.4085 46.8335H73.0712V59.5084L46.865 70.2076L53.0222 167.469L125.5 222L197.978 167.469L204.139 70.2076L177.929 59.5084Z"/>
<path d="M28 215.48L54.3086 184.146L61.6047 190.859L28 215.48Z"/>
<path d="M223 215.48L196.691 184.146L189.395 190.859L223 215.48Z"/>
<path d="M28 27L54.3086 58.3308L61.6047 51.6215L28 27Z"/>
<path d="M223 27L196.691 58.3308L189.395 51.6215L223 27Z"/>
</svg>
