<svg width="250" height="250" viewBox="0 0 250 250">
<path d="M232 17.0586H162.332L221.87 27.1887L232 86.7262V17.0586Z"/>
<path d="M226.935 137.601L208.8 66.4024L199.455 57.0571L204.617 44.4412L192.001 49.6081L182.656 40.2585L111.457 22.1237L77.3085 43.3298L83.5486 49.5741L110.965 31.961L166.188 45.8793L169.523 51.9582L161.157 73.7879L147.561 87.3795L149.916 89.7296L99.9866 139.663L99.397 149.662L109.396 149.072L159.325 99.1428L161.679 101.497L175.275 87.9013L197.1 79.5359L203.179 82.8702L217.098 138.094L199.489 165.51L205.729 171.75L226.935 137.601Z"/>
<path d="M79.3022 67.6113L76.2946 129.694H81.8517L79.3022 67.6113Z"/>
<path d="M87.1543 179.959L108.547 158.566L206.026 156.419L208.117 153.161L96.5887 155.38L70.2666 181.702H67.3608L67.3565 178.792L93.6786 152.47L95.8972 40.9415L92.6393 43.0371L90.4928 140.512L69.1 161.909L69.9569 142.667L53.8795 143.549L51.3809 185.851L18 219.232L29.8311 231.059L63.2078 197.678L105.51 195.179L106.392 179.102L87.1543 179.959Z"/>
<path d="M181.447 169.756L119.364 172.764V167.207L181.447 169.756Z"/>
</svg>
