<svg width="250" height="250" viewBox="0 0 250 250">
<path d="M23 83.105V176.79L29.0023 105.372L51.8707 111.967L23 83.105Z"/>
<path d="M55.0503 23H147.596L77.6653 29.5188L83.4641 51.4016L55.0503 23Z"/>
<path d="M31.4448 44.38L42.0284 33.7994L34.8856 26.6587L24.302 37.2392L31.4448 44.38Z"/>
<path d="M34.4056 37.2393H24.302V71.0847H34.4056V37.2393Z"/>
<path d="M50.2465 82.7402L31.4448 63.9402L24.302 71.0847L43.1037 89.881L50.2465 82.7402Z"/>
<path d="M75.9259 79.7803H43.1074V89.8809H75.9259V79.7803Z"/>
<path d="M40.1504 43.5814V62.4851L52.2932 74.6244H71.2024V55.7245L59.0558 43.5814H40.1504Z"/>
<path d="M221.666 218.663L214.665 225.662L80.7952 91.8312L87.7959 84.8325L221.666 218.663Z"/>
<path d="M80.7952 91.8312H92.5731V78.4328L80.7952 66.6544V91.8312Z"/>
<path d="M130.084 145.563L140.2 155.675L167.876 171.892L151.659 144.219L141.54 134.107L130.084 145.563Z"/>
<path d="M205.86 209.86L205.721 219.642L214.327 226L222 218.329L215.641 209.722L205.86 209.86Z"/>
</svg>
