<svg width="250" height="250" viewBox="0 0 250 250">
<path d="M165.281 121.946V129.054L233 125.5L165.281 121.946Z"/>
<path d="M85.7152 121.946V129.054L18 125.5L85.7152 121.946Z"/>
<path d="M121.942 85.7152H129.054L125.5 18L121.942 85.7152Z"/>
<path d="M121.942 165.285H129.054L125.5 233L121.942 165.285Z"/>
<path d="M154.29 69.5819L60.6655 119.884L47.5822 143.042L141.501 92.5801L154.29 69.5819Z"/>
<path d="M223.034 64.9814L34.6342 165.61L21.5137 188.77L209.508 88.3554L223.034 64.9814Z"/>
<path d="M195.764 111.567L102.678 161.578L89.0596 185.027L183.642 134.21L195.764 111.567Z"/>
</svg>
